<svg width="42" height="36" viewBox="0 0 42 36" fill="none" xmlns="http://www.w3.org/2000/svg">
<path d="M21 11.6662V34.3329ZM21 11.6662C21 7.93256 21 6.06649 21.7267 4.6404C22.3658 3.386 23.3849 2.36578 24.6393 1.72662C26.0653 1 27.9324 1 31.6662 1H37.444C38.6887 1 39.3113 1 39.7867 1.2422C40.2049 1.45527 40.544 1.79498 40.7569 2.21311C40.9991 2.68847 41 3.3112 41 4.55578V24.1113C41 25.3558 40.9991 25.9773 40.7569 26.4527C40.544 26.8709 40.2056 27.2116 39.7873 27.4247C39.3124 27.6667 38.6911 27.6667 37.4489 27.6667H31.154C29.0669 27.6667 28.0216 27.6667 27.0742 27.9544C26.2356 28.2091 25.4571 28.626 24.78 29.1824C24.0151 29.8111 23.4356 30.6793 22.2778 32.416L21 34.3329M21 11.6662C21 7.93256 20.9996 6.06649 20.2731 4.6404C19.6338 3.386 18.614 2.36578 17.3596 1.72662C15.9334 1 14.0662 1 10.3325 1H4.55469C3.31013 1 2.68847 1 2.21311 1.2422C1.79498 1.45527 1.45527 1.79498 1.2422 2.21311C1 2.68847 1 3.3112 1 4.55578V24.1113C1 25.3558 1 25.9773 1.2422 26.4527C1.45527 26.8709 1.79498 27.2116 2.21311 27.4247C2.688 27.6667 3.30891 27.6667 4.55104 27.6667H10.8461C12.9332 27.6667 13.9765 27.6667 14.9238 27.9544C15.7624 28.2091 16.5447 28.626 17.2218 29.1824C17.9836 29.8084 18.5593 30.6724 19.7078 32.3949L21 34.3329" fill="#326589"/>
<path d="M21 11.6662V34.3329M21 11.6662C21 7.93256 21 6.06649 21.7267 4.6404C22.3658 3.386 23.3849 2.36578 24.6393 1.72662C26.0653 1 27.9324 1 31.6662 1H37.444C38.6887 1 39.3113 1 39.7867 1.2422C40.2049 1.45527 40.544 1.79498 40.7569 2.21311C40.9991 2.68847 41 3.3112 41 4.55578V24.1113C41 25.3558 40.9991 25.9773 40.7569 26.4527C40.544 26.8709 40.2056 27.2116 39.7873 27.4247C39.3124 27.6667 38.6911 27.6667 37.4489 27.6667H31.154C29.0669 27.6667 28.0216 27.6667 27.0742 27.9544C26.2356 28.2091 25.4571 28.626 24.78 29.1824C24.0151 29.8111 23.4356 30.6793 22.2778 32.416L21 34.3329M21 11.6662C21 7.93256 20.9996 6.06649 20.2731 4.6404C19.6338 3.386 18.614 2.36578 17.3596 1.72662C15.9334 1 14.0662 1 10.3325 1H4.55469C3.31013 1 2.68847 1 2.21311 1.2422C1.79498 1.45527 1.45527 1.79498 1.2422 2.21311C1 2.68847 1 3.3112 1 4.55578V24.1113C1 25.3558 1 25.9773 1.2422 26.4527C1.45527 26.8709 1.79498 27.2116 2.21311 27.4247C2.688 27.6667 3.30891 27.6667 4.55104 27.6667H10.8461C12.9332 27.6667 13.9765 27.6667 14.9238 27.9544C15.7624 28.2091 16.5447 28.626 17.2218 29.1824C17.9836 29.8084 18.5593 30.6724 19.7078 32.3949L21 34.3329" stroke="#002F52" stroke-width="2" stroke-linecap="round" stroke-linejoin="round"/>
<path d="M23.3218 15.2458C23.3218 14.0027 22.2824 12.9947 21.0001 12.9947C19.7179 12.9947 18.6783 14.0027 18.6783 15.2458C18.6783 16.4891 19.7179 17.497 21.0001 17.497C22.2824 17.497 23.3218 16.4891 23.3218 15.2458Z" fill="#53C1DE"/>
<path fill-rule="evenodd" clip-rule="evenodd" d="M28.5403 11.0665C29.0306 9.13481 29.6469 5.55262 27.4743 4.33814C25.3119 3.12896 22.4979 5.44597 21.012 6.83675C19.5305 5.45983 16.6375 3.15272 14.4667 4.37105C12.3052 5.58429 12.9718 9.10709 13.4729 11.0509C11.4565 11.6062 8 12.8022 8 15.2458C8 17.6824 11.4529 18.9836 13.4574 19.5384C12.9544 21.493 12.3212 24.9654 14.4855 26.176C16.6643 27.3941 19.5483 25.1419 21.048 23.7359C22.5434 25.1349 25.3304 27.4018 27.4932 26.1879C29.6629 24.9701 29.0978 21.4359 28.5966 19.4808C30.5397 18.9249 34 17.652 34 15.2458C34 12.8257 30.5249 11.62 28.5403 11.0665ZM28.294 18.4447C27.965 17.4347 27.5208 16.3607 26.9775 15.2512C27.4961 14.1678 27.923 13.1076 28.2429 12.1041C29.6978 12.5131 32.8894 13.4478 32.8894 15.2458C32.8894 17.0607 29.8267 18.0042 28.294 18.4447ZM26.9367 25.2559C25.3229 26.1615 22.9258 23.9937 21.8214 22.9634C22.5541 22.1865 23.2863 21.2832 24.0008 20.2802C25.2578 20.1722 26.4453 19.9954 27.5222 19.754C27.8749 21.1369 28.5575 24.3461 26.9367 25.2559ZM15.0405 25.243C13.4266 24.3407 14.1642 21.242 14.5343 19.8022C15.5992 20.0306 16.7781 20.195 18.0381 20.294C18.7573 21.2754 19.5107 22.1776 20.2699 22.9676C19.3319 23.8474 16.6619 26.1494 15.0405 25.243ZM9.11062 15.2458C9.11062 13.4241 12.2831 12.4962 13.7712 12.0883C14.0966 13.1143 14.5234 14.1871 15.0384 15.272C14.5167 16.3731 14.0838 17.4629 13.7554 18.5011C12.3365 18.1073 9.11062 17.0686 9.11062 15.2458ZM15.0232 5.30307C16.6437 4.3936 19.1581 6.60852 20.2338 7.60544C19.4785 8.39187 18.732 9.28719 18.0189 10.263C16.7961 10.3729 15.6256 10.5493 14.5495 10.7857C14.1457 9.21795 13.4045 6.21155 15.0232 5.30307ZM24.7954 11.4335C25.625 11.535 26.4198 11.67 27.1661 11.8352C26.942 12.5315 26.6628 13.2596 26.3339 14.0059C25.8571 13.1289 25.3454 12.2694 24.7954 11.4335ZM21.0124 8.37502C21.5247 8.91311 22.0377 9.51399 22.5425 10.1659C21.5187 10.1189 20.4933 10.1188 19.4695 10.1652C19.9746 9.51935 20.4921 8.91936 21.0124 8.37502ZM15.6756 14.0051C15.3522 13.2614 15.0754 12.5301 14.8495 11.8238C15.5913 11.6629 16.3824 11.5313 17.2066 11.4315C16.6551 12.2656 16.1442 13.1247 15.6756 14.0051ZM17.2303 19.1369C16.3788 19.0448 15.5758 18.9199 14.8342 18.7634C15.0637 18.0448 15.3465 17.2977 15.6769 16.5379C16.1519 17.4275 16.6706 18.295 17.2303 19.1369ZM21.0432 22.1926C20.5167 21.6419 19.9916 21.0327 19.4788 20.3775C20.5084 20.4167 21.54 20.4167 22.5695 20.3722C22.0632 21.0394 21.552 21.6494 21.0432 22.1926ZM26.3445 16.4992C26.692 17.2673 26.9849 18.0103 27.2176 18.7168C26.4637 18.8836 25.6498 19.0179 24.7923 19.1177C25.3463 18.2659 25.8662 17.3931 26.3445 16.4992ZM23.381 19.2482C21.8061 19.3573 20.2214 19.3561 18.646 19.2571C17.7508 17.9893 16.9539 16.6559 16.266 15.2717C16.9506 13.8903 17.7417 12.5595 18.6326 11.2937C20.2092 11.1782 21.7954 11.1778 23.372 11.2944C24.2553 12.5602 25.0452 13.8875 25.7456 15.2564C25.0535 16.637 24.2582 17.9705 23.381 19.2482ZM26.9196 5.27105C28.5405 6.17753 27.819 9.39696 27.4649 10.7969C26.3862 10.5556 25.2149 10.376 23.9885 10.2644C23.274 9.27803 22.5338 8.38115 21.7907 7.60489C22.8802 6.58649 25.3144 4.37344 26.9196 5.27105Z" fill="#53C1DE"/>
</svg>
